<mxfile host="app.diagrams.net" modified="2023-12-01T01:56:14.416Z" agent="Mozilla/5.0 (Windows NT 10.0; Win64; x64) AppleWebKit/537.36 (KHTML, like Gecko) Chrome/119.0.0.0 Safari/537.36" etag="Affr4qKrnCeKYMgnNSBb" version="22.1.5" type="device">
  <diagram name="Halaman-1" id="PB6E0ZslIbDBB-XBdBa6">
    <mxGraphModel dx="1434" dy="784" grid="1" gridSize="10" guides="1" tooltips="1" connect="1" arrows="1" fold="1" page="1" pageScale="1" pageWidth="827" pageHeight="1169" math="0" shadow="0">
      <root>
        <mxCell id="0" />
        <mxCell id="1" parent="0" />
        <mxCell id="3LFAYO5c45kX1PotLrni-20" value="" style="edgeStyle=orthogonalEdgeStyle;rounded=0;orthogonalLoop=1;jettySize=auto;html=1;" edge="1" parent="1" source="3LFAYO5c45kX1PotLrni-1" target="3LFAYO5c45kX1PotLrni-19">
          <mxGeometry relative="1" as="geometry" />
        </mxCell>
        <mxCell id="3LFAYO5c45kX1PotLrni-1" value="MULAI" style="ellipse;whiteSpace=wrap;html=1;" vertex="1" parent="1">
          <mxGeometry x="290" y="130" width="120" height="80" as="geometry" />
        </mxCell>
        <mxCell id="3LFAYO5c45kX1PotLrni-22" value="" style="edgeStyle=orthogonalEdgeStyle;rounded=0;orthogonalLoop=1;jettySize=auto;html=1;" edge="1" parent="1" source="3LFAYO5c45kX1PotLrni-19" target="3LFAYO5c45kX1PotLrni-21">
          <mxGeometry relative="1" as="geometry" />
        </mxCell>
        <mxCell id="3LFAYO5c45kX1PotLrni-19" value="MENU LOGIN" style="shape=parallelogram;perimeter=parallelogramPerimeter;whiteSpace=wrap;html=1;fixedSize=1;" vertex="1" parent="1">
          <mxGeometry x="290" y="270" width="120" height="60" as="geometry" />
        </mxCell>
        <mxCell id="3LFAYO5c45kX1PotLrni-24" value="" style="edgeStyle=orthogonalEdgeStyle;rounded=0;orthogonalLoop=1;jettySize=auto;html=1;" edge="1" parent="1" source="3LFAYO5c45kX1PotLrni-21" target="3LFAYO5c45kX1PotLrni-23">
          <mxGeometry relative="1" as="geometry" />
        </mxCell>
        <mxCell id="3LFAYO5c45kX1PotLrni-35" value="YA" style="edgeLabel;html=1;align=center;verticalAlign=middle;resizable=0;points=[];" vertex="1" connectable="0" parent="3LFAYO5c45kX1PotLrni-24">
          <mxGeometry x="-0.3667" y="3" relative="1" as="geometry">
            <mxPoint as="offset" />
          </mxGeometry>
        </mxCell>
        <mxCell id="3LFAYO5c45kX1PotLrni-26" value="" style="edgeStyle=orthogonalEdgeStyle;rounded=0;orthogonalLoop=1;jettySize=auto;html=1;" edge="1" parent="1" source="3LFAYO5c45kX1PotLrni-21" target="3LFAYO5c45kX1PotLrni-25">
          <mxGeometry relative="1" as="geometry" />
        </mxCell>
        <mxCell id="3LFAYO5c45kX1PotLrni-37" value="TIDAK" style="edgeLabel;html=1;align=center;verticalAlign=middle;resizable=0;points=[];" vertex="1" connectable="0" parent="3LFAYO5c45kX1PotLrni-26">
          <mxGeometry x="-0.4933" y="-2" relative="1" as="geometry">
            <mxPoint as="offset" />
          </mxGeometry>
        </mxCell>
        <mxCell id="3LFAYO5c45kX1PotLrni-21" value="SUDAH REGISTRASI?" style="rhombus;whiteSpace=wrap;html=1;" vertex="1" parent="1">
          <mxGeometry x="295" y="370" width="110" height="110" as="geometry" />
        </mxCell>
        <mxCell id="3LFAYO5c45kX1PotLrni-40" value="" style="edgeStyle=orthogonalEdgeStyle;rounded=0;orthogonalLoop=1;jettySize=auto;html=1;" edge="1" parent="1" source="3LFAYO5c45kX1PotLrni-23" target="3LFAYO5c45kX1PotLrni-38">
          <mxGeometry relative="1" as="geometry" />
        </mxCell>
        <mxCell id="3LFAYO5c45kX1PotLrni-23" value="MASUKKAN USERNAME DAN PASSWORD" style="rounded=0;whiteSpace=wrap;html=1;" vertex="1" parent="1">
          <mxGeometry x="290" y="540" width="120" height="60" as="geometry" />
        </mxCell>
        <mxCell id="3LFAYO5c45kX1PotLrni-28" value="" style="edgeStyle=orthogonalEdgeStyle;rounded=0;orthogonalLoop=1;jettySize=auto;html=1;" edge="1" parent="1" source="3LFAYO5c45kX1PotLrni-25" target="3LFAYO5c45kX1PotLrni-27">
          <mxGeometry relative="1" as="geometry" />
        </mxCell>
        <mxCell id="3LFAYO5c45kX1PotLrni-25" value="BUAT USERNAME, PASSWORD" style="rounded=0;whiteSpace=wrap;html=1;" vertex="1" parent="1">
          <mxGeometry x="480" y="395" width="120" height="60" as="geometry" />
        </mxCell>
        <mxCell id="3LFAYO5c45kX1PotLrni-29" style="edgeStyle=orthogonalEdgeStyle;rounded=0;orthogonalLoop=1;jettySize=auto;html=1;exitX=0.5;exitY=0;exitDx=0;exitDy=0;entryX=1;entryY=0.5;entryDx=0;entryDy=0;" edge="1" parent="1" source="3LFAYO5c45kX1PotLrni-27" target="3LFAYO5c45kX1PotLrni-19">
          <mxGeometry relative="1" as="geometry">
            <Array as="points">
              <mxPoint x="710" y="425" />
              <mxPoint x="810" y="425" />
              <mxPoint x="810" y="300" />
            </Array>
          </mxGeometry>
        </mxCell>
        <mxCell id="3LFAYO5c45kX1PotLrni-32" value="YA" style="edgeLabel;html=1;align=center;verticalAlign=middle;resizable=0;points=[];" vertex="1" connectable="0" parent="3LFAYO5c45kX1PotLrni-29">
          <mxGeometry x="-0.6469" y="-1" relative="1" as="geometry">
            <mxPoint x="1" as="offset" />
          </mxGeometry>
        </mxCell>
        <mxCell id="3LFAYO5c45kX1PotLrni-31" style="edgeStyle=orthogonalEdgeStyle;rounded=0;orthogonalLoop=1;jettySize=auto;html=1;exitX=0.5;exitY=1;exitDx=0;exitDy=0;entryX=0.5;entryY=1;entryDx=0;entryDy=0;" edge="1" parent="1" source="3LFAYO5c45kX1PotLrni-27" target="3LFAYO5c45kX1PotLrni-25">
          <mxGeometry relative="1" as="geometry">
            <Array as="points">
              <mxPoint x="710" y="520" />
              <mxPoint x="540" y="520" />
            </Array>
          </mxGeometry>
        </mxCell>
        <mxCell id="3LFAYO5c45kX1PotLrni-33" value="TIDAK" style="edgeLabel;html=1;align=center;verticalAlign=middle;resizable=0;points=[];" vertex="1" connectable="0" parent="3LFAYO5c45kX1PotLrni-31">
          <mxGeometry x="-0.8549" y="3" relative="1" as="geometry">
            <mxPoint y="1" as="offset" />
          </mxGeometry>
        </mxCell>
        <mxCell id="3LFAYO5c45kX1PotLrni-27" value="CHECK PASSWORD BENAR?" style="rhombus;whiteSpace=wrap;html=1;" vertex="1" parent="1">
          <mxGeometry x="660" y="377.5" width="100" height="95" as="geometry" />
        </mxCell>
        <mxCell id="3LFAYO5c45kX1PotLrni-39" style="edgeStyle=orthogonalEdgeStyle;rounded=0;orthogonalLoop=1;jettySize=auto;html=1;entryX=1;entryY=0.5;entryDx=0;entryDy=0;" edge="1" parent="1" source="3LFAYO5c45kX1PotLrni-38" target="3LFAYO5c45kX1PotLrni-23">
          <mxGeometry relative="1" as="geometry">
            <Array as="points">
              <mxPoint x="470" y="680" />
              <mxPoint x="470" y="570" />
            </Array>
          </mxGeometry>
        </mxCell>
        <mxCell id="3LFAYO5c45kX1PotLrni-41" value="TIDAK" style="edgeLabel;html=1;align=center;verticalAlign=middle;resizable=0;points=[];" vertex="1" connectable="0" parent="3LFAYO5c45kX1PotLrni-39">
          <mxGeometry x="-0.736" y="-1" relative="1" as="geometry">
            <mxPoint as="offset" />
          </mxGeometry>
        </mxCell>
        <mxCell id="3LFAYO5c45kX1PotLrni-44" value="" style="edgeStyle=orthogonalEdgeStyle;rounded=0;orthogonalLoop=1;jettySize=auto;html=1;" edge="1" parent="1" source="3LFAYO5c45kX1PotLrni-38" target="3LFAYO5c45kX1PotLrni-43">
          <mxGeometry relative="1" as="geometry" />
        </mxCell>
        <mxCell id="3LFAYO5c45kX1PotLrni-45" value="YA" style="edgeLabel;html=1;align=center;verticalAlign=middle;resizable=0;points=[];" vertex="1" connectable="0" parent="3LFAYO5c45kX1PotLrni-44">
          <mxGeometry x="-0.15" relative="1" as="geometry">
            <mxPoint as="offset" />
          </mxGeometry>
        </mxCell>
        <mxCell id="3LFAYO5c45kX1PotLrni-38" value="BENAR?" style="rhombus;whiteSpace=wrap;html=1;" vertex="1" parent="1">
          <mxGeometry x="300" y="640" width="100" height="100" as="geometry" />
        </mxCell>
        <mxCell id="3LFAYO5c45kX1PotLrni-43" value="ANDA DI DASHBOARD APLIKASI" style="shape=parallelogram;perimeter=parallelogramPerimeter;whiteSpace=wrap;html=1;fixedSize=1;" vertex="1" parent="1">
          <mxGeometry x="290" y="780" width="120" height="60" as="geometry" />
        </mxCell>
      </root>
    </mxGraphModel>
  </diagram>
</mxfile>
